PathFileType	4	(X/Y/Z)	/Users/niels/Desktop/University/Third Semester/Perception and Action/Exam/Gymnastics Motion Tracking/Code for Gym Tracking/Analyzed Data/Webcam_Backflip/id1_2_trajectory_Sports2D/id1_2_trajectory_Sports2D_px_person00.trc
DataRate	CameraRate	NumFrames	NumMarkers	Units	OrigDataRate	OrigDataStartFrame	OrigNumFrames
29.92822966507177	29.92822966507177	9	22	m	29.92822966507177	52	418
Frame#	Time	Hip			RHip			RKnee			RAnkle			RBigToe			RSmallToe			RHeel			LHip			LKnee			LAnkle			LBigToe			LSmallToe			LHeel			Neck			Head			Nose			RShoulder			RElbow			RWrist			LShoulder			LElbow			LWrist		
		X1	Y1	Z1	X2	Y2	Z2	X3	Y3	Z3	X4	Y4	Z4	X5	Y5	Z5	X6	Y6	Z6	X7	Y7	Z7	X8	Y8	Z8	X9	Y9	Z9	X10	Y10	Z10	X11	Y11	Z11	X12	Y12	Z12	X13	Y13	Z13	X14	Y14	Z14	X15	Y15	Z15	X16	Y16	Z16	X17	Y17	Z17	X18	Y18	Z18	X19	Y19	Z19	X20	Y20	Z20	X21	Y21	Z21	X22	Y22	Z22
52	1.737490007993605	0.8182206077165832	-0.5932424773621804	0.0	0.7958734077405841	-0.6006269639379742	0.0	0.7818378979817828	-0.8400266464175478	0.0	0.7583490678881228	-1.0554025704211665	0.0	0.8456375081547656	-1.0774833818552219	0.0	0.8199075646751774	-1.0862523097923484	0.0	0.7375194416041743	-1.0766504068489116	0.0	0.8369291229103535	-0.6005585351641993	0.0	0.8075468570503757	-0.8268305923034154	0.0	0.7713345322134075	-1.0344096881223448	0.0	0.8628023326289966	-1.054289192524433	0.0	0.8540220057214502	-1.0457628859443906	0.0	0.7445470764785904	-1.051342225531212	0.0	0.812683065339777	-0.26483998304150314	0.0	0.8485004561855198	-0.12753252391916312	0.0	0.8613576648287748	-0.20835097600638572	0.0	0.7562278109172575	-0.30399441646314995	0.0	0.7251191423541247	-0.4644978287677318	0.0	0.7281990073075176	-0.6121131148529562	0.0	0.8382908121332192	-0.3162634122182692	0.0	0.8226307273813825	-0.46537557515356825	0.0	0.8536756710853749	-0.5978998716860966	0.0
53	1.7709032773780975	0.8190260177532497	-0.5931669088398935	0.0	0.7962469672245026	-0.6002066978271384	0.0	0.7819658903709121	-0.8402775411352963	0.0	0.7586315866920728	-1.0553973420442189	0.0	0.8459401276259692	-1.0777582618529158	0.0	0.820058902669971	-1.0862473426633652	0.0	0.7379083286163888	-1.076757850074871	0.0	0.8374430222006343	-0.5998706857180075	0.0	0.8069406697033089	-0.827071740671527	0.0	0.771252828531479	-1.0345509078324562	0.0	0.8631889772206613	-1.0548603179647975	0.0	0.8538888623998021	-1.0463875506658697	0.0	0.7443713459010867	-1.0520914484634283	0.0	0.8131884265489773	-0.26481351161288785	0.0	0.8496505850610259	-0.127556444134502	0.0	0.8618895682859727	-0.20829905098819498	0.0	0.7571717136542202	-0.30342855452098944	0.0	0.7230142263005248	-0.4631999771110034	0.0	0.7251410820704202	-0.6104548039715447	0.0	0.8382216825137581	-0.3157267527258488	0.0	0.8181494048825234	-0.46320406647816786	0.0	0.8518411267697287	-0.595879814855191	0.0
54	1.80431654676259	0.819683240583321	-0.5933608515036545	0.0	0.7964710505984531	-0.6003125089033854	0.0	0.7820582651463898	-0.8407616760395602	0.0	0.7589652764179644	-1.0554169673386653	0.0	0.8462972479087193	-1.0779854343600765	0.0	0.8203545263290808	-1.0863574137449643	0.0	0.7382787965999185	-1.0768469959007994	0.0	0.83783761977802	-0.5998526086404535	0.0	0.8063968329076411	-0.8277367490578779	0.0	0.7712764555532171	-1.0347412876575923	0.0	0.8634565179605864	-1.0551998546328594	0.0	0.8538315327333459	-1.0467971151817688	0.0	0.7440120029668821	-1.0523697848093536	0.0	0.8136919936400486	-0.26498949482533163	0.0	0.8505839665621465	-0.12766921880502716	0.0	0.862279566026799	-0.20820173261519415	0.0	0.7579972030619683	-0.30303808828647644	0.0	0.7217161901466573	-0.4622568245553754	0.0	0.7233054882738087	-0.6090435800996383	0.0	0.8383481568830505	-0.315409878355593	0.0	0.8156108392183375	-0.4618936905962277	0.0	0.8513360626426344	-0.5945136036579701	0.0
55	1.8377298161470823	0.8202018180249667	-0.5935114978187768	0.0	0.7966603409978145	-0.6006400028127076	0.0	0.7821180189012478	-0.8412656019490478	0.0	0.7592084015616296	-1.055534163665678	0.0	0.8464268952877617	-1.0781742649537855	0.0	0.8204277653930063	-1.0866040783726285	0.0	0.7385810126639882	-1.0768314980576579	0.0	0.838156473261685	-0.6002357819831126	0.0	0.8060416945606586	-0.8285351849994314	0.0	0.7714726747986984	-1.0348957292351062	0.0	0.8636748818833533	-1.055214070371913	0.0	0.853954850789187	-1.0469603895931596	0.0	0.7436761988902558	-1.0521097067185539	0.0	0.8141300911817395	-0.2652667731603583	0.0	0.8512888136514203	-0.12782604799364924	0.0	0.8627405054583057	-0.20809762774327506	0.0	0.7586532296677623	-0.3028097792534607	0.0	0.7212691651667141	-0.4617555881324068	0.0	0.7226746860577103	-0.608014992534711	0.0	0.838622224875722	-0.31534271940782405	0.0	0.814712288234952	-0.4612622594929398	0.0	0.8515711972185954	-0.5936305758697462	0.0
56	1.8711430855315747	0.8205676676670234	-0.593486380454173	0.0	0.7968477494611265	-0.6010284091417301	0.0	0.7821329616184538	-0.8416355129788107	0.0	0.7592644284166807	-1.055779688548982	0.0	0.8462629504556998	-1.078445487211672	0.0	0.8201862011176203	-1.0869616238355777	0.0	0.7387939638715867	-1.0767141262845765	0.0	0.8383693797705056	-0.6008064138143621	0.0	0.8059448572051037	-0.8293029600706505	0.0	0.7717512098600002	-1.0350875663611145	0.0	0.863913040591621	-1.0552032358421963	0.0	0.8542974623603752	-1.0471480370099107	0.0	0.7434894226620344	-1.0516222366918184	0.0	0.8145068402221773	-0.265499703545215	0.0	0.8518214324404272	-0.12806670971507866	0.0	0.8633562144544215	-0.2080545536905505	0.0	0.7591373773402114	-0.30268805628308637	0.0	0.7217320507020022	-0.4616723453612384	0.0	0.7232878670728989	-0.6075058847800255	0.0	0.8390423459658506	-0.3155224440768262	0.0	0.8150042726854944	-0.4610889932746829	0.0	0.8520398168612336	-0.593094359136232	0.0
57	1.9045563549160671	0.8207446825594954	-0.593355880808613	0.0	0.7970078381597016	-0.6014489466909884	0.0	0.7820876454607772	-0.8417701644340017	0.0	0.7591365721804768	-1.056068106023217	0.0	0.8459583572275471	-1.0788426574596874	0.0	0.8198462079939612	-1.0873409951265625	0.0	0.7389050282895098	-1.0765209368751247	0.0	0.8383198741550482	-0.6014400529223864	0.0	0.8060515137617755	-0.8299296660115311	0.0	0.7719187669538348	-1.0353557792008725	0.0	0.8641533648535623	-1.0555326318733345	0.0	0.8547476378092613	-1.0476363852925672	0.0	0.7433723630355439	-1.051318673856182	0.0	0.8148124914769467	-0.2655836920963536	0.0	0.8522429755284878	-0.12848873559232155	0.0	0.864076124327593	-0.2081733744144387	0.0	0.7594455201744883	-0.3026381241685253	0.0	0.7231223790305591	-0.4619051406640932	0.0	0.7252160967027206	-0.6075751321933078	0.0	0.8395309574813535	-0.315857079736162	0.0	0.8159841175200289	-0.4612114999061709	0.0	0.8523082099119652	-0.5928563107816615	0.0
58	1.9379696243005595	0.8206526842545043	-0.5932647743323497	0.0	0.7971231361557004	-0.6018522228945943	0.0	0.7820043023477278	-0.841616411842883	0.0	0.7589422370350389	-1.0562871801940839	0.0	0.8457764189424746	-1.0792466126310736	0.0	0.8197166647924716	-1.087666520295036	0.0	0.7389027313967428	-1.0762882763794794	0.0	0.8378896906961492	-0.6020023711719467	0.0	0.8062865327409063	-0.830251807551389	0.0	0.7718817000659204	-1.0356206286792589	0.0	0.864305807553372	-1.0562747150128375	0.0	0.855110582559215	-1.0484097941333401	0.0	0.7431787285739472	-1.0514135422810833	0.0	0.814979510282513	-0.2655110215865546	0.0	0.8525891378454202	-0.12910119078374657	0.0	0.8647659112215009	-0.20852937861878182	0.0	0.7595368977671987	-0.30265594808505575	0.0	0.72531094353277	-0.46235963089121207	0.0	0.7285222374836292	-0.6081922701083682	0.0	0.8399034686999495	-0.316208449494149	0.0	0.817234518577635	-0.46153070149884046	0.0	0.8520605487734754	-0.5929008858411124	0.0
59	1.971382893685052	0.8202092410522346	-0.5934142725973487	0.0	0.7972162714640424	-0.6022390556871315	0.0	0.7819680020992704	-0.8412179989069365	0.0	0.7588115174970469	-1.0564189482590334	0.0	0.8458686807584828	-1.0795096617185915	0.0	0.8199468612105003	-1.0879299923787638	0.0	0.7387835846481432	-1.076115137192769	0.0	0.8371470326140417	-0.6024155865520247	0.0	0.8066437782852869	-0.830182001217298	0.0	0.7717026241971076	-1.0358439308041203	0.0	0.8642331696697205	-1.0572534550782107	0.0	0.8551879825262293	-1.0492410390699871	0.0	0.7428755401140426	-1.0519219516379215	0.0	0.814954156383409	-0.2653686473910178	0.0	0.8528357305245405	-0.12978459911312382	0.0	0.8652519920134947	-0.20909750714846587	0.0	0.7593930981444593	-0.3027865178423873	0.0	0.7280476841451762	-0.4630097380970656	0.0	0.7332237813392135	-0.6092893123283936	0.0	0.8399995287502545	-0.3164952895936866	0.0	0.8186301650417677	-0.4620660488568524	0.0	0.8513699810824344	-0.5933349966345126	0.0
60	2.0047961630695443	0.819398706670518	-0.5940544732104934	0.0	0.7972845190259987	-0.6027785444114643	0.0	0.7820473798934353	-0.84072685552513	0.0	0.758807321823531	-1.0564984537261035	0.0	0.8461536669725396	-1.0795563574041536	0.0	0.8204321973791223	-1.088140232408877	0.0	0.7385826619327129	-1.076084089530868	0.0	0.8363059388723315	-0.6027803499838658	0.0	0.8071223099514993	-0.8298023389133394	0.0	0.7714691764837588	-1.0360410871961325	0.0	0.8637876798308278	-1.0581242089205265	0.0	0.8548117721125439	-1.0498229930319318	0.0	0.7424354830319324	-1.0526408438029498	0.0	0.814768809614254	-0.2652780240814672	0.0	0.8528712259793597	-0.13038443832657223	0.0	0.8653651781553933	-0.20974930851489704	0.0	0.7590743082546021	-0.3031343994140644	0.0	0.7310792417228321	-0.463917707348067	0.0	0.7392630220769385	-0.6107438644207688	0.0	0.8398167283553518	-0.3167256323299596	0.0	0.8204462668588343	-0.46302147649465825	0.0	0.8509147983151379	-0.5944634829585996	0.0
